PathFileType	4	(X/Y/Z)	C:\Users\WrightLab\Desktop\Jo\P4V18.trc
DataRate	CameraRate	NumFrames	NumMarkers	Units	OrigDataRate	OrigDataStartFrame	OrigNumFrames
100.00	100.00	       19	19	mm	100.00	126	       502
Frame#	Time	Headset_Front			Headset_Back			Headset_Left			Headset_Right			Left_Shoulder			Right_Shoulder			Sternum			C7			Left Elbow			Right Elbow			Left Wrist			Right Wrist			Left ASIS			Right ASIS			S2			Left Knee			Right Knee			Left Ankle			Right Ankle			
		X1	Y1	Z1	X2	Y2	Z2	X3	Y3	Z3	X4	Y4	Z4	X5	Y5	Z5	X6	Y6	Z6	X7	Y7	Z7	X8	Y8	Z8	X9	Y9	Z9	X10	Y10	Z10	X11	Y11	Z11	X12	Y12	Z12	X13	Y13	Z13	X14	Y14	Z14	X15	Y15	Z15	X16	Y16	Z16	X17	Y17	Z17	X18	Y18	Z18	X19	Y19	Z19	

126	1.250							25.52445	1727.97986	1272.15161				40.16856	1553.74414	1346.83606	336.00671	1575.02637	1313.24866	165.98351	1497.22412	1226.80249	188.91043	1608.44189	1373.25391	-225.26523	1345.05676	1259.46887	509.41309	1246.10327	1260.30969	-308.62198	1272.56116	962.11371	451.07294	1052.27087	1035.65186	36.91406	1044.79724	1292.09607	365.05731	1091.34949	1239.54248	204.98705	1096.24890	1452.48438	131.26634	562.52020	1319.02124	404.58655	639.01056	1128.45667	275.42252	93.28881	1440.39990	445.16373	230.63971	1425.34131	
127	1.260							25.41265	1727.88293	1264.47400				39.52311	1555.29785	1342.59790	335.77728	1574.98816	1304.41052	164.66887	1497.08032	1218.81506	188.35594	1608.26184	1364.92542	-223.78569	1341.32043	1252.78149	508.46085	1245.04443	1250.71838	-303.94794	1266.19922	955.31836	449.49005	1051.76819	1026.32214	35.80640	1044.58020	1286.25110	363.35779	1091.01697	1227.48206	206.71950	1096.86743	1445.00391	130.39914	562.40771	1317.24731	400.32339	639.84155	1115.35059	275.37128	93.31064	1440.34473	448.74304	219.78195	1396.50195	
128	1.270	157.44952	1840.05835	1296.22156				24.74413	1728.27380	1256.61731				39.25408	1555.32178	1335.14734	334.74127	1574.27039	1294.99243	161.61684	1496.81311	1210.42419	187.92493	1607.47546	1357.54883	-222.26865	1337.44922	1246.09290	507.06519	1244.92993	1241.13208	-298.51077	1260.60168	947.37299	448.41919	1051.63770	1016.53699	34.69017	1044.39893	1280.34253	361.16904	1091.60840	1216.86853	208.45865	1096.45984	1435.40491	129.68867	562.33295	1315.41956	394.93890	639.64874	1102.93359	275.34735	93.37115	1441.20361	453.80682	208.92792	1365.74524	
129	1.280	156.94395	1839.66846	1289.94446				24.13942	1728.42578	1248.74194				37.96437	1554.94604	1327.91687	333.97601	1573.28271	1286.21301	161.75458	1496.84570	1202.09265	188.24553	1606.97888	1349.21436	-220.82611	1332.87207	1239.73035	506.11847	1244.59277	1232.29700	-295.70676	1251.18042	941.60223	446.70267	1051.14355	1006.94977	33.55876	1043.76331	1274.28223	358.90482	1090.93665	1205.28906	210.74849	1095.70264	1429.14490	129.15213	561.89343	1312.97278	389.63028	638.72559	1091.48132	275.06442	93.24332	1441.22913	454.62347	197.57329	1335.46594	
130	1.290	156.06517	1839.29248	1283.49634				23.28890	1728.45325	1240.85754				36.94555	1554.62805	1320.40137	333.02151	1572.79346	1277.00574	159.02188	1496.67981	1194.23474	187.67468	1606.56201	1341.89221	-218.91789	1328.95459	1232.97351	504.60815	1243.46619	1221.72668	-291.33517	1243.84631	936.05780	445.28421	1050.54980	997.41949	32.61764	1043.27905	1268.22888	356.41721	1090.80737	1193.63684	211.29529	1096.77966	1418.47229	128.70444	561.72815	1310.37122	385.16046	638.34753	1079.88098	275.29739	93.55481	1441.08472	456.38217	186.36436	1304.84790	
131	1.300	155.20688	1838.46924	1277.05713				22.84711	1728.23364	1232.86597				36.02802	1553.66174	1313.07813	332.35239	1572.11292	1267.34241	155.56320	1495.84290	1187.67810	187.15297	1605.57581	1332.73584	-217.17853	1323.84070	1226.65906	504.03943	1242.63025	1212.69556	-286.70093	1235.96252	929.14606	443.78760	1050.24182	987.43237	31.51902	1042.54358	1261.85852	354.05017	1090.02271	1183.32874	213.01311	1095.19434	1406.55750	128.66763	561.49164	1307.90796	380.99054	637.26428	1069.78870	275.55453	93.68349	1439.79712	455.67233	176.61847	1273.89136	
132	1.310	153.88515	1838.20129	1270.24780				22.55985	1727.99072	1224.68274				35.50637	1552.85364	1305.43164	330.87723	1571.31018	1258.12634	155.18015	1495.81909	1177.23914	186.27794	1605.32214	1326.46375	-215.33186	1319.15454	1219.85901	502.30154	1242.13806	1202.59277	-282.16977	1227.58618	923.33240	441.91898	1049.43323	977.97699	30.41572	1041.95081	1255.31787	352.03235	1089.44812	1171.88953	213.87160	1095.34583	1401.60730	128.71318	561.35571	1305.18994	376.98312	636.38025	1059.73413	276.05957	93.36008	1440.81531	454.12619	165.29706	1242.02380	
133	1.320	152.93054	1837.14246	1263.55371				21.85859	1727.15271	1216.64600				33.81186	1552.38232	1298.03357	330.25037	1570.83264	1248.40283	153.17471	1493.30579	1170.63989	185.08932	1604.69775	1318.26550	-213.32622	1313.40051	1213.53357	500.90759	1240.98157	1193.23230	-277.26163	1219.22327	917.59656	440.07437	1048.77148	967.82684	29.44660	1041.03955	1248.47607	349.26245	1088.28662	1162.41516	215.79227	1095.53723	1393.01550	128.12202	561.46979	1302.74072	372.30872	635.09064	1049.97913	276.09332	93.44479	1440.76526	450.83374	155.38045	1209.90881	
134	1.330	152.21329	1836.26514	1256.58740				20.52159	1726.97754	1208.39551				33.29601	1551.17908	1290.33777	329.12814	1569.18066	1238.95129	149.08484	1493.91614	1162.42322	184.50732	1603.53748	1309.72498	-211.43413	1308.74438	1206.89380	499.48590	1239.73572	1184.13208	-272.48337	1209.40979	911.36670	438.24030	1048.42249	958.02808	28.41834	1040.22717	1241.59460	346.97165	1087.32581	1150.72498	216.15491	1093.94092	1381.31299	128.12700	560.96613	1299.22009	368.37625	632.76257	1041.59631	276.13504	93.53282	1440.67712	446.81927	145.55872	1178.66260	
135	1.340	151.13968	1835.47168	1249.43262				19.77095	1726.35376	1199.99731				31.98847	1550.16370	1282.71436	327.72134	1568.54077	1229.58850	149.47510	1493.24658	1152.28027	184.11520	1602.23535	1301.19604	-209.33217	1303.05029	1200.55042	497.98669	1238.64502	1173.82007	-267.53781	1200.09265	905.68231	436.27045	1047.80945	948.20996	27.37666	1039.04346	1234.32971	345.18750	1086.87488	1138.90173	216.65129	1093.42969	1372.55359	127.53385	560.55273	1296.54028	365.67719	630.52881	1032.68140	276.16824	93.75377	1440.36853	440.64380	136.72751	1147.14673	
136	1.350	150.06850	1834.16882	1242.28503				18.14157	1725.83521	1191.56287				30.80455	1549.12598	1275.06018	326.94730	1567.53809	1219.77466	145.97505	1492.85364	1143.66370	182.90508	1600.98694	1292.79614	-207.77049	1297.66748	1194.03906	496.73907	1237.65857	1164.26794	-262.07996	1190.21033	900.29578	434.84500	1047.26355	938.09918	26.33432	1038.02222	1226.92297	343.37561	1084.73950	1129.08423	217.01884	1092.92761	1363.38708	127.71568	559.84210	1292.52905	362.88086	627.71240	1024.83386	276.32602	94.49230	1440.39221	433.35428	128.20621	1115.27759	
137	1.360	148.98242	1832.88672	1234.91626				17.20563	1724.94824	1183.13416				29.85113	1547.51123	1267.10474	325.46579	1565.89868	1210.51184	145.53767	1490.99255	1134.50452	182.45566	1599.46204	1284.14807	-205.91568	1292.53882	1187.19104	494.57169	1236.12048	1154.23560	-256.62939	1180.12549	894.96429	433.04150	1046.21448	927.74841	25.49539	1036.77478	1219.32349	341.96515	1083.92358	1118.89197	216.93195	1091.89282	1353.62927	127.63374	559.66394	1289.13940	361.00522	624.65839	1017.39465	275.45929	96.01651	1438.87964	424.70633	121.12069	1084.54858	
138	1.370	147.79012	1831.68164	1227.41541				15.94424	1724.10132	1174.50940				29.12673	1545.62354	1259.20764	323.56964	1564.72607	1200.74036	140.35588	1489.81372	1128.11694	181.11557	1598.24988	1275.52136	-204.88934	1288.04333	1181.32776	493.09995	1234.76465	1144.40564	-250.93994	1169.85205	888.93219	431.32181	1046.09949	917.11438	24.53947	1035.45544	1211.41028	340.55200	1081.56824	1108.04871	217.50813	1091.00989	1343.05786	127.43890	559.31256	1285.15735	358.94766	621.82281	1009.54230	275.46866	96.47456	1438.50781	415.80783	114.63842	1054.31958	
139	1.380	146.51585	1830.31604	1219.72473				14.49424	1723.35303	1165.84570				27.98796	1543.70557	1251.23999	322.19397	1563.22668	1191.03479	144.41051	1486.90955	1118.09204	179.97641	1596.39966	1266.81335	-202.06076	1281.02637	1173.71948	491.66327	1233.44629	1135.00842	-246.10980	1159.37000	883.68579	429.29779	1045.67090	906.97046	23.55000	1034.14673	1203.36426	338.09613	1079.21021	1097.54211	217.95445	1088.87866	1332.34351	127.71630	558.77643	1280.83789	358.39465	618.08484	1002.12396	275.66730	96.89559	1438.79932	405.43933	108.86929	1025.46082	
140	1.390	145.02437	1828.99377	1211.93152				13.32641	1722.41748	1157.05493				26.35977	1542.08386	1243.19910	320.33041	1561.64014	1180.98230	142.43990	1486.22900	1109.16150	178.76862	1594.51440	1258.17810	-200.05962	1275.00525	1166.84021	489.82703	1232.25049	1124.32788	-241.89526	1147.73413	879.03143	427.82089	1045.29187	896.04858	22.42333	1031.79614	1195.81665	336.18170	1077.38147	1085.59180	217.56604	1088.14905	1323.15906	126.71721	558.08411	1276.18506	357.03537	614.80566	995.70782	276.06027	97.42641	1438.40637	394.16083	103.80319	996.71118	
141	1.400	143.79520	1827.38892	1204.08960				11.87117	1720.92578	1148.32605				24.91701	1540.19812	1235.11072	319.03159	1559.62537	1171.15881	140.42467	1484.05676	1100.61499	177.49850	1593.18469	1249.26501	-199.35271	1270.24377	1160.56702	488.17441	1230.40051	1114.11938	-236.24300	1136.91699	873.35870	426.22787	1044.81140	884.81903	21.38460	1030.18213	1187.36060	335.20178	1075.43506	1075.41504	217.05014	1086.36108	1313.97595	126.50359	557.56580	1271.50024	356.45761	610.91754	989.14966	276.20856	98.85315	1437.89917	383.50418	99.43075	969.85638	
142	1.410	142.19051	1825.88159	1196.03503				11.12864	1719.46338	1139.45752				23.28844	1538.14758	1226.86682	317.29852	1558.25854	1162.14600	138.17102	1483.03247	1091.44507	176.36165	1591.42505	1240.43579	-197.82779	1263.92883	1153.44434	487.13300	1229.25928	1103.99902	-232.22058	1126.21680	869.58911	424.73233	1044.62073	873.46417	20.81432	1028.64294	1178.43164	333.63043	1073.47534	1064.52637	217.18997	1084.69727	1303.74963	125.70983	557.27283	1266.35828	355.54602	607.11041	981.96082	275.87738	99.82583	1437.16748	372.04584	96.44501	944.16638	
143	1.420	140.90669	1824.16895	1187.96765				9.55947	1718.31812	1130.53186				21.59217	1536.28821	1218.54736	315.81631	1556.44507	1152.07397	136.47984	1480.69299	1082.70581	174.93040	1589.75037	1231.61377	-194.98193	1258.00842	1146.69519	485.27600	1227.68982	1093.67041	-226.91841	1115.74866	864.60608	423.82648	1044.72632	862.47772	19.54926	1027.52942	1169.29565	332.42444	1070.71399	1053.74011	216.65701	1083.69971	1294.28247	124.89735	556.46027	1260.84985	354.55588	603.29065	975.31006	275.71207	101.45792	1436.98389	361.09689	94.61323	920.70984	
144	1.430	138.38792	1822.89526	1179.77454				8.08698	1717.20068	1121.52551				20.33234	1534.17273	1210.07324	313.63000	1554.76404	1142.38416	134.12642	1479.71655	1073.57898	173.67143	1587.71362	1222.90979	-193.53860	1251.84949	1139.90454	483.45114	1225.94043	1083.36340	-223.09853	1104.03589	860.61041	422.61121	1044.77869	850.01318	18.68563	1025.97131	1160.15955	330.27103	1068.76697	1043.47717	216.75273	1080.86926	1281.71790	123.84768	555.85468	1254.78186	352.86719	599.91266	967.65161	276.20212	102.70764	1435.79578	350.62622	93.51402	899.04120	
